PathFileType	4	(X/Y/Z)	C:/Users/opensim2020/Desktop/walking_exp_matlab/subject03_walking08_straight_04.trc																																																																																																																																																							
DataRate	CameraRate	NumFrames	NumMarkers	Units	OrigDataRate	OrigDataStartFrame	OrigNumFrames																																																																																																																																																			
100	100	4	51	mm	100	3465	303																																																																																																																																																			
Frame#	Time	LFHD			RFHD			LBHD			RBHD			C7			T10			CLAV			STRN			RBAK			LSHO			LUPA			LELB			LFRM			LWRA			LWRB			LFIN			RSHO			RUPA			RELB			RFRM			RWRA			RWRB			RFIN			LASI			RASI			LPSI			RPSI			LTHI			LKNE			LTIB			LANK			LHEE			LTOE			RTHI			RKNE			RTIB			RANK			RHEE			RTOE			*39			*40			*41			*42			*43			*44			*45			*46			*47			*48			*49			*50		
		X1	Y1	Z1	X2	Y2	Z2	X3	Y3	Z3	X4	Y4	Z4	X5	Y5	Z5	X6	Y6	Z6	X7	Y7	Z7	X8	Y8	Z8	X9	Y9	Z9	X10	Y10	Z10	X11	Y11	Z11	X12	Y12	Z12	X13	Y13	Z13	X14	Y14	Z14	X15	Y15	Z15	X16	Y16	Z16	X17	Y17	Z17	X18	Y18	Z18	X19	Y19	Z19	X20	Y20	Z20	X21	Y21	Z21	X22	Y22	Z22	X23	Y23	Z23	X24	Y24	Z24	X25	Y25	Z25	X26	Y26	Z26	X27	Y27	Z27	X28	Y28	Z28	X29	Y29	Z29	X30	Y30	Z30	X31	Y31	Z31	X32	Y32	Z32	X33	Y33	Z33	X34	Y34	Z34	X35	Y35	Z35	X36	Y36	Z36	X37	Y37	Z37	X38	Y38	Z38	X39	Y39	Z39	X40	Y40	Z40	X41	Y41	Z41	X42	Y42	Z42	X43	Y43	Z43	X44	Y44	Z44	X45	Y45	Z45	X46	Y46	Z46	X47	Y47	Z47	X48	Y48	Z48	X49	Y49	Z49	X50	Y50	Z50	X51	Y51	Z51
																																																																																																																																																										
114	1.13	-407.67429	1619.73669	-1470.26184	-423.87909	1621.64282	-1338.20471	-537.33643	1582.50867	-1480.7561	-548.36572	1584.35767	-1350.90625	-584.02771	1423.62585	-1416.53687	-626.30591	1110.11768	-1413.34167	-465.45193	1341.90894	-1420.2467	-428.16589	1176.36426	-1423.70691	-639.20612	1251.19824	-1313.84497	-518.9281	1378.97107	-1574.56921	-550.04565	1183.36072	-1647.76843	-552.53186	1061.3446	-1665.02319	-526.38464	934.3645	-1672.09741	-499.35577	817.21393	-1648.46594	-532.30878	821.82483	-1693.59937	-511.6134	739.87134	-1689.74512	-503.36679	1370.28015	-1259.59656	-472.63449	1153.41992	-1180.63782	-436.11899	1047.26953	-1165.93774	-391.91272	917.86218	-1163.08557	-346.1069	830.12585	-1199.68921	-371.97125	819.92883	-1153.37463	-335.16653	755.56525	-1163.25525	-461.2774	946.59967	-1532.19604	-464.59995	941.72339	-1294.59656	-624.74585	964.88873	-1486.69055	-623.29175	977.21356	-1336.88818	-435.97894	653.89154	-1584.4021	-375.68387	486.14923	-1551.52551	-442.65967	298.83151	-1557.07104	-487.3689	94.13971	-1523.9989	-531.71893	59.50657	-1484.53906	-348.65073	48.12252	-1505.99524	-542.94513	649.17328	-1265.84192	-549.05487	470.34924	-1305.51404	-614.40131	289.97446	-1310.33521	-656.83563	78.92797	-1367.73022	-698.19397	50.46856	-1422.17163	-515.64484	35.49709	-1373.59619	NaN	NaN	NaN	NaN	NaN	NaN	NaN	NaN	NaN	NaN	NaN	NaN	NaN	NaN	NaN	NaN	NaN	NaN	NaN	NaN	NaN	NaN	NaN	NaN	NaN	NaN	NaN	NaN	NaN	NaN	NaN	NaN	NaN	NaN	NaN	NaN
115	1.14	-400.54037	1619.10522	-1470.71252	-416.52853	1621.11243	-1338.6875	-530.12	1581.63867	-1481.1344	-541.06189	1583.60059	-1351.23438	-576.61316	1423.00281	-1416.50989	-619.19055	1109.57043	-1413.50378	-458.05875	1341.18713	-1420.39514	-421.01376	1175.47034	-1423.73425	-631.68939	1250.81104	-1313.53345	-512.03162	1378.11731	-1574.68884	-544.15973	1182.58374	-1647.61511	-546.79993	1060.54102	-1665.02991	-520.41101	933.59027	-1671.90894	-493.09354	816.52307	-1648.35901	-526.27039	821.02216	-1693.29126	-505.22836	739.24451	-1689.61829	-495.40674	1369.75073	-1259.71899	-464.09857	1153.17041	-1180.55627	-427.18729	1047.23523	-1165.89966	-382.10019	918.24255	-1163.39307	-334.77136	831.14893	-1200.77393	-360.80029	820.45514	-1154.30188	-323.423	756.57544	-1164.48767	-454.09433	945.77905	-1532.10388	-457.95389	941.1109	-1294.59351	-617.6947	964.11652	-1486.9082	-616.49622	976.55365	-1337.07104	-428.9353	653.15588	-1584.38062	-367.0983	486.09454	-1550.6449	-425.68387	296.41965	-1556.66809	-459.74228	89.258	-1522.98718	-503.8465	53.85073	-1484.50757	-319.93918	48.58602	-1504.15295	-537.84393	648.84204	-1265.73389	-545.51849	470.13644	-1305.41956	-612.49774	290.23398	-1310.32068	-656.45453	79.49474	-1367.81262	-698.01697	51.2377	-1422.32568	-515.59363	35.44976	-1373.54272	NaN	NaN	NaN	NaN	NaN	NaN	NaN	NaN	NaN	NaN	NaN	NaN	NaN	NaN	NaN	NaN	NaN	NaN	NaN	NaN	NaN	NaN	NaN	NaN	NaN	NaN	NaN	NaN	NaN	NaN	NaN	NaN	NaN	NaN	NaN	NaN
116	1.15	-393.297	1618.46411	-1471.23071	-409.27603	1620.50452	-1339.11475	-522.83606	1580.75317	-1481.53064	-533.65063	1582.79736	-1351.60303	-569.02521	1422.26611	-1416.4884	-612.07208	1108.95605	-1413.67944	-450.56189	1340.33984	-1420.58252	-413.77255	1174.59998	-1423.79041	-624.16815	1250.32617	-1313.34863	-505.01077	1377.21326	-1574.84399	-538.00311	1181.68701	-1647.46448	-540.63464	1059.61206	-1664.6228	-514.21729	932.72455	-1671.66772	-486.79797	815.76978	-1648.22327	-520.05182	820.15503	-1692.88318	-498.73801	738.46411	-1689.36743	-487.49588	1369.10596	-1259.87646	-455.70615	1152.81042	-1180.50146	-418.34637	1047.05273	-1165.92358	-371.87454	918.46704	-1164.03076	-324.20496	832.00085	-1201.74792	-349.84024	820.86438	-1155.27881	-311.94873	757.62726	-1165.93079	-447.05173	944.82739	-1532.0188	-451.18427	940.41699	-1294.38855	-610.70654	963.38397	-1487.27063	-609.68475	975.8562	-1337.35657	-422.29504	651.98901	-1584.49268	-358.9346	485.74487	-1549.8175	-408.84891	294.35577	-1556.15198	-432.95569	85.7709	-1522.75952	-475.85278	48.79875	-1484.42358	-291.43747	49.32311	-1501.96631	-532.67853	648.57373	-1265.66479	-541.9325	469.88107	-1305.28357	-610.59064	290.52551	-1310.29956	-656.35925	80.0804	-1367.6593	-697.81787	52.09215	-1422.41003	-515.4931	35.39353	-1373.44824	NaN	NaN	NaN	NaN	NaN	NaN	NaN	NaN	NaN	NaN	NaN	NaN	NaN	NaN	NaN	NaN	NaN	NaN	NaN	NaN	NaN	NaN	NaN	NaN	NaN	NaN	NaN	NaN	NaN	NaN	NaN	NaN	NaN	NaN	NaN	NaN
117	1.16	-386.04678	1617.74561	-1471.76904	-401.91083	1619.93884	-1339.67957	-515.53491	1579.76099	-1481.95679	-526.22357	1581.89551	-1351.97241	-561.30591	1421.38281	-1416.41089	-604.94916	1108.31494	-1413.98596	-443.052	1339.4519	-1420.78052	-406.49115	1173.63477	-1423.95154	-616.6153	1249.78491	-1313.25391	-497.85025	1376.32458	-1574.98132	-531.66284	1180.7843	-1647.31177	-534.37054	1058.71655	-1664.43225	-507.83862	931.76831	-1671.34924	-480.28781	814.84943	-1647.94067	-513.75861	819.19781	-1692.42004	-492.26028	737.57813	-1689.00244	-479.76141	1368.46179	-1260.12659	-447.366	1152.33569	-1180.51086	-409.63428	1046.7179	-1166.00439	-362.15012	918.56384	-1164.66614	-314.09546	832.65375	-1203.06543	-339.09204	821.14362	-1156.41895	-300.28525	758.22498	-1167.46387	-439.74136	943.75049	-1532.07068	-444.36252	939.71722	-1294.45068	-603.48615	962.26703	-1487.53406	-602.85565	975.1955	-1337.62207	-416.01776	650.60883	-1584.71301	-351.26382	485.08548	-1548.99854	-392.25137	292.52188	-1555.58032	-407.18216	83.28734	-1522.89404	-447.99158	44.45724	-1484.33557	-263.74069	50.09983	-1499.32288	-527.39252	648.21783	-1265.60266	-538.28174	469.68896	-1305.14453	-608.55078	290.79382	-1310.2561	-656.17413	80.59229	-1367.92468	-697.61041	53.0154	-1422.50684	-515.42877	35.3942	-1373.29114	NaN	NaN	NaN	NaN	NaN	NaN	NaN	NaN	NaN	NaN	NaN	NaN	NaN	NaN	NaN	NaN	NaN	NaN	NaN	NaN	NaN	NaN	NaN	NaN	NaN	NaN	NaN	NaN	NaN	NaN	NaN	NaN	NaN	NaN	NaN	NaN
